<svg xmlns="http://www.w3.org/2000/svg" width="933.333" height="933.333" preserveAspectRatio="xMidYMid meet" version="1.0" viewBox="0 0 700 700"><metadata>Created by potrace 1.14, written by Peter Selinger 2001-2017</metadata><g fill="#000" stroke="none"><path d="M3959 5595 c-2 -2 -44 -6 -94 -9 -97 -7 -139 -11 -207 -21 -24 -3 -61 -8 -83 -11 -33 -4 -181 -30 -273 -49 -65 -12 -270 -68 -362 -99 -195 -63 -410 -157 -580 -251 -68 -38 -279 -176 -302 -197 -7 -7 -40 -33 -72 -58 -86 -65 -292 -270 -377 -375 -138 -171 -265 -384 -375 -630 -69 -154 -176 -540 -198 -715 -3 -25 -8 -56 -11 -69 -2 -13 -7 -56 -11 -95 -3 -39 -8 -74 -10 -77 -2 -3 -7 -57 -11 -120 -14 -209 -8 -668 11 -854 2 -16 6 -61 10 -100 4 -38 9 -81 11 -95 2 -14 7 -47 10 -75 10 -89 15 -105 36 -105 10 0 19 3 20 8 1 4 2 25 4 47 4 52 17 220 20 265 3 36 13 126 20 170 2 14 9 63 15 110 6 47 15 103 20 125 5 22 11 56 15 75 11 67 17 96 55 250 225 905 711 1558 1460 1963 179 96 491 221 685 273 153 41 357 87 435 99 14 2 34 6 45 8 11 3 43 8 70 11 28 4 61 9 75 11 106 15 280 33 395 40 241 15 403 21 410 13 2 -2 -60 -12 -138 -21 -78 -9 -153 -19 -167 -21 -14 -3 -41 -7 -60 -10 -19 -3 -46 -8 -60 -11 -14 -3 -36 -8 -50 -10 -285 -48 -659 -171 -944 -310 -170 -83 -483 -276 -548 -338 -7 -7 -33 -28 -58 -47 -59 -44 -117 -96 -215 -190 -299 -287 -556 -648 -763 -1072 -34 -71 -62 -130 -62 -133 0 -2 -12 -30 -26 -62 -49 -111 -57 -129 -115 -290 -32 -90 -59 -171 -59 -181 0 -13 14 -23 48 -34 297 -103 385 -132 432 -145 143 -38 284 -73 313 -78 18 -4 64 -12 102 -20 59 -11 99 -17 205 -31 311 -39 650 -13 895 69 55 18 107 35 115 38 43 13 227 110 301 160 294 197 563 511 815 952 21 38 46 81 55 95 8 15 35 63 58 107 24 44 47 85 51 90 4 6 35 64 70 130 34 66 75 143 90 170 15 28 58 106 95 175 37 69 76 137 86 152 11 14 19 28 19 31 0 10 131 220 201 322 134 198 276 358 483 547 41 37 49 51 51 85 4 47 -19 92 -56 110 -68 34 -462 152 -627 188 -93 20 -278 55 -322 60 -30 4 -57 8 -60 10 -3 1 -30 6 -61 9 -31 4 -65 8 -76 10 -10 2 -59 7 -109 11 -49 4 -98 10 -109 12 -23 6 -651 14 -656 8z" transform="translate(0.000000,700.000000) scale(0.100000,-0.100000)"/></g></svg>