<svg xmlns="http://www.w3.org/2000/svg" version="1.0" viewBox="0 0 700 700">
  <path d="M491.5 31.6c-18.3 4.3-43.1 17-62.5 31.9-12.5 9.6-38.3 35.1-49.1 48.5-7.6 9.5-22.9 33.7-33.9 53.5-4 7.1-7.8 13.7-8.6 14.5-1.2 1.2-1.4 1-1.5-1.5-.2-8.1-1.8-9.8-5.6-5.9-1.6 1.6-8.8 12.8-16 24.9-13.3 22.3-14.8 24.8-37.6 60.4-16.7 26.2-16.9 26.7-17.2 41.4-.1 6.4-.5 12-.8 12.4-.4.3-.7-.5-.8-1.8-.1-6.2-1.2-14.5-1.9-15.3-1.2-1.3-3.8 1-5.9 5.3-1 2-4.2 9.9-7.1 17.6-6.1 16.4-9.5 24.5-15.7 37.5-10.4 21.8-15.2 34.7-17.9 48-1 5.2-.7 22.8.5 28.5 1.3 5.8 5 16.4 6.4 18.2 2.2 3-3.5.3-7.5-3.5-1.5-1.4-3-2.3-3.4-2-1.2 1.3-.5 8.7 1.1 12.2 1.7 3.5 6.7 8.6 8.6 8.6 1.9 0 .8 1.6-2.4 3.5-9.2 5.4-17.8 18.5-19.1 29-.8 6.3 1.4 6.1 9-1.1 3.8-3.6 8.3-7.3 9.9-8.1 3.7-2 9.7-3.4 8.9-2.2-.3.5-1.4.9-2.4.9-2.4 0-9.4 6.6-8.5 8 .5.8 1.4.6 3.1-.4 3-2 7.3-2 8-.1.4.8-.8 7.3-2.5 14.3-3.6 15-5.3 23.7-9.1 46.6-1.1 6.6-1.8 12.1-1.6 12.3.4.4 9.5-27.3 11.2-34.2.4-1.8 14.1-41.6 19.7-57.5 33.6-94.9 56.4-148.3 85.3-199.5 2.1-3.8 4.4-7.9 5.1-9 .7-1.1 1.6-2.7 2-3.5 1.7-3.6 31.2-52.4 37-61.3 11.6-17.9 38.3-51.7 41-51.7.2 0-1.6 2.4-3.9 5.2-13 16-40.9 55.9-48.4 69.3-.6 1.1-5 8.4-9.7 16.2-17 28.1-40.3 71.6-50 93.3-.9 1.9-3.2 7-5.2 11.4-9.6 21-28.5 68.2-36 90.1-1.3 3.8-3.8 10.8-5.5 15.5-21.2 57.9-49.6 145.3-52.7 161.9-.2 1.4-.6 2.8-.8 3.1-.9 1.5-6.5 28.1-7.5 36-2.5 19.6-1.8 26 2.9 26 2.7 0 17.8-9.5 60.4-37.9 7.9-5.2 16.5-13.5 17.9-17 2.4-6.5-1.8-9.2-18.9-12.1-6.3-1.1-12.3-2.5-13.3-3-4.5-2.4-.8-9.5 8.2-15.6 2.4-1.6 4.5-3.2 4.8-3.5 1-1.1 17.3-9.9 18.4-9.9.7 0 1.6-.4 2.2-.9.5-.5 4.7-2.1 9.4-3.7 10.4-3.4 12.4-4.8 4.4-2.9-12.6 2.9-34.8 12-43.6 17.8-10.6 7.1-16.9 15.7-16.3 22.5.5 6.5 4 8.2 17.3 8.7 11.6.5 13.2 1 13.2 4s-9.1 12.4-18 18.5c-10.4 7.2-24.8 14-27.3 13.1-2-.8-2.2-1.5-2-8.7.1-7.6 3.7-29.3 6.8-41.9.9-3.3 1.7-7 2-8.2.3-1.3.7-3.2 1-4.3.2-1.2 1.4-5.5 2.5-9.8 1.2-4.2 2.4-8.6 2.6-9.7.2-1.1 2-7.6 3.9-14.5 2-6.9 4.2-14.9 5-17.8 5.2-18.6 12-25 17.2-16.2 2.4 4.2 6.6 5.5 9 2.8 2.8-3.1 2.4-16.7-.6-23.1-2.8-5.6-2.1-6.9 4.2-8.6 7-2 12.8-1.9 20.5.2 4 1.1 7.6 1.7 7.9 1.3 1-.9-4.3-8.2-8-11-1.9-1.4-5-3.2-7-3.8l-3.6-1.3 10.2-10.5c9-9.3 15.3-16 24.6-26.5 1.5-1.7 6.9-8 12.1-14 5.2-6.1 9.9-11.5 10.5-12.1 7.4-8.1 27.7-33.1 28.6-35.1 1.6-4.2-.6-7.3-5.3-7.3s-3.3-2.9 6.3-13c10.5-11 17.8-21.5 27.4-39 3.8-6.9 8.6-15.6 10.7-19.3 2.1-3.8 3.8-7.1 3.8-7.3 0-1 8-11.1 12.7-16 2.6-2.8 8.1-7.7 12.1-10.8 6.4-5 7.1-5.9 6.1-7.7-.5-1.1-2.6-2.7-4.4-3.6l-3.4-1.6 4.2-4.6c2.3-2.5 6-6.8 8.2-9.5 2.2-2.7 7.7-8.8 12.1-13.5 4.5-4.7 9.8-10.4 11.9-12.6 4.8-5.3 16.7-21.2 18.7-25 21.1-41 23.7-44.9 37.3-55 6.6-4.8 6.9-5.2 4.4-6.6-2.1-1.1-6.7-.8-11.7.7-2 .6-1.3-1.3 6.2-16.2 20.4-40.8 21.3-58.2 4.1-78.2-5.4-6.4-18-9.2-29-6.6z"/>
</svg>