<?xml version="1.0" standalone="no"?>
<!DOCTYPE svg PUBLIC "-//W3C//DTD SVG 20010904//EN"
 "http://www.w3.org/TR/2001/REC-SVG-20010904/DTD/svg10.dtd">
<svg version="1.0" xmlns="http://www.w3.org/2000/svg"
 width="700.000000pt" height="700.000000pt" viewBox="0 0 700.000000 700.000000"
 preserveAspectRatio="xMidYMid meet">
<metadata>
Created by potrace 1.14, written by Peter Selinger 2001-2017
</metadata>
<g transform="translate(0.000000,700.000000) scale(0.100000,-0.100000)"
fill="#000000" stroke="none">
<path d="M4915 6684 c-183 -43 -431 -170 -625 -319 -125 -96 -383 -351 -491
-485 -76 -95 -229 -337 -339 -535 -40 -71 -78 -137 -86 -145 -12 -12 -14 -10
-15 15 -2 81 -18 98 -56 59 -16 -16 -88 -128 -160 -249 -133 -223 -148 -248
-376 -604 -167 -262 -169 -267 -172 -414 -1 -64 -5 -120 -8 -124 -4 -3 -7 5
-8 18 -1 62 -12 145 -19 153 -12 13 -38 -10 -59 -53 -10 -20 -42 -99 -71 -176
-61 -164 -95 -245 -157 -375 -104 -218 -152 -347 -179 -480 -10 -52 -7 -228 5
-285 13 -58 50 -164 64 -182 22 -30 -35 -3 -75 35 -15 14 -30 23 -34 20 -12
-13 -5 -87 11 -122 17 -35 67 -86 86 -86 19 0 8 -16 -24 -35 -92 -54 -178
-185 -191 -290 -8 -63 14 -61 90 11 38 36 83 73 99 81 37 20 97 34 89 22 -3
-5 -14 -9 -24 -9 -24 0 -94 -66 -85 -80 5 -8 14 -6 31 4 30 20 73 20 80 1 4
-8 -8 -73 -25 -143 -36 -150 -53 -237 -91 -466 -11 -66 -18 -121 -16 -123 4
-4 95 273 112 342 4 18 141 416 197 575 336 949 564 1483 853 1995 21 38 44
79 51 90 7 11 16 27 20 35 17 36 312 524 370 613 116 179 383 517 410 517 2 0
-16 -24 -39 -52 -130 -160 -409 -559 -484 -693 -6 -11 -50 -84 -97 -162 -170
-281 -403 -716 -500 -933 -9 -19 -32 -70 -52 -114 -96 -210 -285 -682 -360
-901 -13 -38 -38 -108 -55 -155 -212 -579 -496 -1453 -527 -1619 -2 -14 -6
-28 -8 -31 -9 -15 -65 -281 -75 -360 -25 -196 -18 -260 29 -260 27 0 178 95
604 379 79 52 165 135 179 170 24 65 -18 92 -189 121 -63 11 -123 25 -133 30
-45 24 -8 95 82 156 24 16 45 32 48 35 10 11 173 99 184 99 7 0 16 4 22 9 5 5
47 21 94 37 104 34 124 48 44 29 -126 -29 -348 -120 -436 -178 -106 -71 -169
-157 -163 -225 5 -65 40 -82 173 -87 116 -5 132 -10 132 -40 0 -30 -91 -124
-180 -185 -104 -72 -248 -140 -273 -131 -20 8 -22 15 -20 87 1 76 37 293 68
419 9 33 17 70 20 82 3 13 7 32 10 43 2 12 14 55 25 98 12 42 24 86 26 97 2
11 20 76 39 145 20 69 42 149 50 178 52 186 120 250 172 162 24 -42 66 -55 90
-28 28 31 24 167 -6 231 -28 56 -21 69 42 86 70 20 128 19 205 -2 40 -11 76
-17 79 -13 10 9 -43 82 -80 110 -19 14 -50 32 -70 38 l-36 13 102 105 c90 93
153 160 246 265 15 17 69 80 121 140 52 61 99 115 105 121 74 81 277 331 286
351 16 42 -6 73 -53 73 -47 0 -33 29 63 130 105 110 178 215 274 390 38 69 86
156 107 193 21 38 38 71 38 73 0 10 80 111 127 160 26 28 81 77 121 108 64 50
71 59 61 77 -5 11 -26 27 -44 36 l-34 16 42 46 c23 25 60 68 82 95 22 27 77
88 121 135 45 47 98 104 119 126 48 53 167 212 187 250 211 410 237 449 373
550 66 48 69 52 44 66 -21 11 -67 8 -117 -7 -20 -6 -13 13 62 162 204 408 213
582 41 782 -54 64 -180 92 -290 66z"/>
</g>
</svg>
